<?xml version="1.0" standalone="no"?>
<!DOCTYPE svg PUBLIC "-//W3C//DTD SVG 20010904//EN"
 "http://www.w3.org/TR/2001/REC-SVG-20010904/DTD/svg10.dtd">
<svg version="1.0" xmlns="http://www.w3.org/2000/svg"
 width="1024.000000pt" height="1024.000000pt" viewBox="0 0 1024.000000 1024.000000"
 preserveAspectRatio="xMidYMid meet">

<g transform="translate(0.000000,1024.000000) scale(0.100000,-0.100000)"
fill="#000000" stroke="none">
<path d="M3590 6975 l0 -275 -265 0 -265 0 0 -1660 0 -1660 265 0 265 0 0
-280 0 -280 1600 0 1600 0 0 280 0 280 265 0 265 0 0 1105 0 1105 -1327 -2
-1328 -3 -3 -547 -2 -548 795 0 795 0 0 -280 0 -280 -1060 0 -1060 0 0 1110 0
1110 1595 0 1595 0 0 550 0 550 -1865 0 -1865 0 0 -275z"/>
</g>
</svg>
